# xmcd
#
# Track frame offsets:
#	150
#	16308
#	33004
#	48628
#	64185
#	79988
#	95734
#	110311
#	123482
#	140718
#	154883
#
# Disc length: 2257 seconds
#
# Revision: 1
# Processed by: cddbd v1.5.1PL0 Copyright (c) Steve Scherf et al.
# Submitted via: audiograbber 1.83.01
#
DISCID=9508cf0b
DTITLE=Jake Mathews - Jake Mathews
DYEAR=2001
DGENRE=Country
TTITLE0=I'll Do You One Better
TTITLE1=Try Again Tomorrow
TTITLE2=You Put Me Together Again
TTITLE3=That's How Long
TTITLE4=Rush
TTITLE5=My Heart Gets In The Way
TTITLE6=Hey Moon
TTITLE7=I'm Gone
TTITLE8=Shattered
TTITLE9=There Ain't No Such Thing
TTITLE10=I Think Of You
EXTD=
EXTT0=
EXTT1=
EXTT2=
EXTT3=
EXTT4=
EXTT5=
EXTT6=
EXTT7=
EXTT8=
EXTT9=
EXTT10=
PLAYORDER=
